<svg xmlns="http://www.w3.org/2000/svg" viewBox="0 0 847.159 743.623"><path fill="#fff" d="M423.574.498c9.39 0 18.785 3.583 25.947 10.747a36.682 36.682 0 0 1 5.884 7.69l19.058 32.696h.088l366.377 635.05c.068.12.122.243.19.365a36.71 36.71 0 0 1 4.282 9.888c5.245 19.57-6.371 39.692-25.947 44.936a36.534 36.534 0 0 1-9.673 1.25H37.198c-20.27 0-36.696-16.426-36.696-36.695 0-6.63 1.768-12.851 4.85-18.222a.928.928 0 0 0 .063-.122L385.874 27.57c4.828-8.331 7.066-11.631 11.757-16.324C404.795 4.081 414.185.498 423.574.498z"/><path fill="#c1121c" d="M423.574 9.693c8.906-.064 18.687 4.487 23.477 13.007l386.617 669.864c2.23 4.56 3.168 8.525 3.197 13.061 0 8.12-3.594 15.825-9.809 21.05-5.479 4.243-10.67 6.45-17.652 6.45H37.02c-4.711.044-9.434-1.089-13.72-3.916a26.94 26.94 0 0 1-13.014-23.033c.23-4.867 1.432-10 3.6-13.612L400.278 22.588c.033-.06.072-.118.111-.175.04-.06.079-.118.117-.182 1.373-2.192 3.092-4.13 5.05-5.79a27.49 27.49 0 0 1 16.03-6.646 24.692 24.692 0 0 1 1.987-.102zm385.83 723.432h1.905-1.944.039zM423.975 142.456l-294.629 510.67H719.02l-295.044-510.67z"/><path d="M423.574 0c9.522 0 19.038 3.633 26.298 10.894a37.174 37.174 0 0 1 5.968 7.792l18.911 32.447h.088L841.357 686.43c.083.148.142.274.2.376a37.204 37.204 0 0 1 4.327 9.995c5.312 19.84-6.465 40.235-26.299 45.553a37.363 37.363 0 0 1-9.805 1.269H37.197C16.66 743.623 0 726.963 0 706.425a37.033 37.033 0 0 1 4.917-18.466c.014-.024.034-.064.063-.123L385.435 27.32c4.839-8.335 7.119-11.704 11.835-16.425C404.531 3.633 414.052 0 423.569 0h.005zm0 .498c-9.389 0-18.779 3.583-25.943 10.747-4.691 4.693-6.929 7.993-11.757 16.324L5.42 688.08c-.025.044-.044.083-.069.122a36.511 36.511 0 0 0-4.848 18.222c0 20.269 16.426 36.695 36.695 36.695H809.78a36.534 36.534 0 0 0 9.673-1.25c19.576-5.244 31.192-25.366 25.947-44.936a36.554 36.554 0 0 0-4.281-9.888c-.069-.122-.123-.245-.191-.366L474.55 51.631h-.088l-19.058-32.696a36.682 36.682 0 0 0-5.884-7.69C442.36 4.081 432.97.498 423.574.498z"/><path d="M290.171 627.831l35.219-35.238 35.245 35.238V493.853l68.671 33.29c25.005 12.13 55.113 1.68 67.261-23.324a50.628 50.628 0 0 0 5.04-21.978V341.51l-35.245-61.025-35.24 61.025v108.197l-68.65-33.29c-25.01-12.128-55.138-1.7-67.262 23.325a50.355 50.355 0 0 0-5.039 21.978"/></svg>