<svg xmlns="http://www.w3.org/2000/svg" viewBox="0 0 847.159 743.623"><defs><clipPath id="a" clipPathUnits="userSpaceOnUse"><path d="M0 48.225h54.825V0H0v48.225z"/></clipPath></defs><path fill="#fff" d="M423.574.498c9.39 0 18.785 3.583 25.947 10.747a36.682 36.682 0 0 1 5.884 7.69l19.058 32.696h.088l366.377 635.05c.068.12.122.243.19.365a36.71 36.71 0 0 1 4.282 9.888c5.245 19.57-6.371 39.692-25.947 44.936a36.534 36.534 0 0 1-9.673 1.25H37.198c-20.27 0-36.696-16.426-36.696-36.695 0-6.63 1.768-12.851 4.85-18.222a.928.928 0 0 0 .063-.122L385.874 27.57c4.828-8.331 7.066-11.631 11.757-16.324C404.795 4.081 414.185.498 423.574.498z"/><path fill="#c1121c" d="M423.574 9.693c8.906-.064 18.687 4.487 23.477 13.007l386.617 669.864c2.23 4.56 3.168 8.525 3.197 13.061 0 8.12-3.594 15.825-9.809 21.05-5.479 4.243-10.67 6.45-17.652 6.45H37.02c-4.711.044-9.434-1.089-13.72-3.916a26.94 26.94 0 0 1-13.014-23.033c.23-4.867 1.432-10 3.6-13.612L400.278 22.588c.033-.06.072-.118.111-.175.04-.06.079-.118.117-.182 1.373-2.192 3.092-4.13 5.05-5.79a27.49 27.49 0 0 1 16.03-6.646 24.692 24.692 0 0 1 1.987-.102zm385.83 723.432h1.905-1.944.039zM423.975 142.456l-294.629 510.67H719.02l-295.044-510.67z"/><path d="M423.574 0c9.522 0 19.038 3.633 26.298 10.894a37.174 37.174 0 0 1 5.968 7.792l18.911 32.447h.088L841.357 686.43c.083.148.142.274.2.376a37.204 37.204 0 0 1 4.327 9.995c5.312 19.84-6.465 40.235-26.299 45.553a37.363 37.363 0 0 1-9.805 1.269H37.197C16.66 743.623 0 726.963 0 706.425a37.033 37.033 0 0 1 4.917-18.466c.014-.024.034-.064.063-.123L385.435 27.32c4.839-8.335 7.119-11.704 11.835-16.425C404.531 3.633 414.052 0 423.569 0h.005zm0 .498c-9.389 0-18.779 3.583-25.943 10.747-4.691 4.693-6.929 7.993-11.757 16.324L5.42 688.08c-.025.044-.044.083-.069.122a36.511 36.511 0 0 0-4.848 18.222c0 20.269 16.426 36.695 36.695 36.695H809.78a36.534 36.534 0 0 0 9.673-1.25c19.576-5.244 31.192-25.366 25.947-44.936a36.554 36.554 0 0 0-4.281-9.888c-.069-.122-.123-.245-.191-.366L474.55 51.631h-.088l-19.058-32.696a36.682 36.682 0 0 0-5.884-7.69C442.36 4.081 432.97.498 423.574.498z"/><g><path d="M428.508 615.253l41.634-49.73c2.311-1.158 4.628-3.47 6.94-3.47l8.095-3.469c4.628-1.158 9.252-4.628 12.721-8.095l28.911-33.537c12.721-16.19 35.852-17.348 50.886-4.628 2.311 1.158 4.628 3.47 5.783 5.783l75.172 97.144c2.311 3.47 2.311 8.096-1.158 10.409-1.159 1.158-3.47 2.31-4.628 2.31H434.287c-4.628 0-6.939-3.469-6.939-8.095 0-1.158 0-3.47 1.158-4.628zm55.512-279.871c0 15.034-12.721 27.756-27.756 27.756-15.034 0-27.756-12.722-27.756-27.756 0-15.035 12.722-26.598 27.756-26.598 15.035 0 27.756 11.563 27.756 26.598zM333.676 452.188l40.477-76.329H345.24l-17.347 32.382 17.347 15.034-5.782 10.409-17.348-13.878-8.094 15.035c-12.721-6.94-17.347-23.13-10.408-34.695l20.815-40.478c3.47-5.783 9.253-9.252 16.192-9.252h64.763c16.191 0 28.913 12.722 28.913 28.913v2.31l-6.939 108.712 68.233 57.823c-2.31 2.311-5.782 4.628-10.408 6.94l-58.982-49.729-1.158 12.722c-13.878-1.158-24.287-12.722-23.13-26.6v-5.782l-17.347-13.878 5.782-10.409 12.722 9.252 2.311-45.103-26.6 50.886-45.103-24.287zm75.172 175.786c-16.191 0-30.069-12.721-30.069-28.912l-2.311-61.295-30.069-46.258-72.858 136.465c-13.878-8.095-19.66-25.442-11.565-40.477l68.232-128.37 45.104 23.13 28.912 45.102c0 1.158 1.158 2.31 1.158 3.47"/></g></svg>